<?xml version="1.0" encoding="iso-8859-1"?>
<!-- Uploaded to: SVG Repo, www.svgrepo.com, Generator: SVG Repo Mixer Tools -->
<svg fill="#000000" height="800px" width="800px" version="1.1" id="Layer_1" xmlns="http://www.w3.org/2000/svg" xmlns:xlink="http://www.w3.org/1999/xlink" 
	 viewBox="0 0 511.999 511.999" xml:space="preserve">
<g>
	<g>
		<path d="M503.239,8.761c-11.68-11.68-30.686-11.682-42.369,0L254.398,215.234l-17.331-17.331
			c-1.857-1.857-4.496-2.709-7.086-2.288c-2.593,0.421-4.825,2.062-5.999,4.411l-25.753,51.507
			c-3.208-2.886-8.145-2.795-11.233,0.292c-2.944,2.944-3.165,7.571-0.678,10.776L4.885,342.285C1.917,343.589,0,346.524,0,349.766
			c0,28.589,7.443,55.467,20.477,78.817c0.228,0.536,0.515,1.055,0.866,1.547c14.438,25.213,35.448,46.199,60.678,60.61
			c0.4,0.271,0.813,0.502,1.241,0.695c23.386,13.088,50.32,20.563,78.971,20.563c3.242,0,6.177-1.916,7.481-4.885l79.686-181.432
			c1.469,1.138,3.231,1.715,4.997,1.715c2.091,0,4.182-0.797,5.778-2.393c3.086-3.086,3.178-8.023,0.292-11.232l51.507-25.753
			c2.349-1.174,3.989-3.407,4.411-5.999c0.42-2.592-0.431-5.229-2.288-7.085l-17.332-17.332L503.239,51.129
			C514.92,39.448,514.92,20.442,503.239,8.761z M16.436,355.061l182.211-80.029l4.882,4.88L30.76,412.959
			C22.25,395.327,17.177,375.737,16.436,355.061z M156.94,495.565c-20.677-0.741-40.267-5.814-57.899-14.324l56.406-73.246
			c2.753-3.575,2.086-8.705-1.488-11.459c-3.576-2.754-8.705-2.085-11.459,1.488l-57.913,75.203
			c-18.471-11.659-34.154-27.343-45.812-45.812l176.406-135.848l5.255,5.254l-57.996,75.31c-2.753,3.575-2.086,8.705,1.488,11.459
			c1.485,1.144,3.24,1.697,4.979,1.697c2.449,0,4.871-1.096,6.48-3.185l56.701-73.628l4.88,4.88L156.94,495.565z M248.308,301.582
			l-37.891-37.891l23.109-46.22l24.723,24.723l-17.332,17.332c-3.191,3.191-3.191,8.364,0,11.554
			c1.596,1.595,3.688,2.393,5.778,2.393c2.091,0,4.182-0.797,5.778-2.393l17.331-17.332l24.723,24.723L248.308,301.582z
			 M491.684,39.573L285.21,246.048l-19.257-19.258L472.427,20.316c5.31-5.311,13.95-5.31,19.257,0
			C496.994,25.626,496.994,34.264,491.684,39.573z"/>
	</g>
</g>
</svg>